# xmcd CD database file
#
# Track frame offsets:
#	150
#	13949
#	18864
#	29912
#	45908
#	61780
#	68904
#	85384
#	94769
#	107903
#	123049
#	176290
#	221685
#	262213
#	285024
#
# Disc length: 4058 seconds
#
# Revision: 0
# Processed by: cddbd v1.5.2PL0 Copyright (c) Steve Scherf et al.
# Submitted via: CDex 1.70beta2
#
DISCID=c80fd80f
DTITLE=Arnvid Meyer and various - Right Out Of Kansas City [CD1)
DYEAR=1960
DGENRE=Jazz
TTITLE0=If I Had You
TTITLE1=Gatemouth
TTITLE2=That's When I'll Come Back To You
TTITLE3=Bottom's Up
TTITLE4=Serenade To A Lousy Backhand
TTITLE5=Sunset And Vine Blues
TTITLE6=Mood Indigo
TTITLE7=Lazy River
TTITLE8=Blue Light
TTITLE9=After You've Gone
TTITLE10=Honeysuckle Rose
TTITLE11=Foolin' Myself
TTITLE12=Undecided
TTITLE13=9:20 Special
TTITLE14=Sophisticated Lady
EXTD=YEAR: 1960
EXTT0=
EXTT1=
EXTT2=
EXTT3=
EXTT4=
EXTT5=
EXTT6=
EXTT7=
EXTT8=
EXTT9=
EXTT10=
EXTT11=
EXTT12=
EXTT13=
EXTT14=
PLAYORDER=
